<?xml version="1.0" encoding="utf-8"?>
<svg version="1.1" xmlns="http://www.w3.org/2000/svg" xmlns:xlink="http://www.w3.org/1999/xlink" x="0px" y="0px" viewBox="0 0 256 256" enable-background="new 0 0 256 256" xml:space="preserve">
<metadata> Svg Vector Icons : http://www.onlinewebfonts.com/icon </metadata>
<g><g><g><path fill="#E94469" d="M117.2,10.7c-23.7,4.3-42.8,23.4-48,48c-2,9.3-1.2,22.2,1.9,30.3l0.8,2.2l-1.6,3.1c-6,12.2-0.4,25.7,12.6,30.1l2.3,0.8l16.5,51.8c9.1,28.5,17.6,55.1,18.9,59.2c2.7,8.5,3.5,9.6,6.8,9.6c3.6,0,3.9-0.7,8.1-13.8c2.1-6.5,10.1-32,18-56.8c7.9-24.8,14.5-45.8,14.8-46.6c0.4-1.3,0.8-1.5,2.9-2c6.3-1.5,12.2-6.3,14.9-12c2.9-6.2,2.2-14.9-1.7-20.7l-1.6-2.4l1.2-3.4c2-5.9,2.7-10.8,2.7-18.4c0-7.7-0.7-11.8-3-18.7c-7.2-21.3-25.1-36.9-46.6-40.6C132.2,9.8,122.2,9.8,117.2,10.7z M135.9,20.5c16.2,2.6,29.5,12.3,36.5,26.6c6.4,13,6.8,27.6,1.2,41c-2.2,5.1-2,6.3,1.4,9.9c4.1,4.3,4.6,7.6,2.3,12.9c-1.9,4.3-5,6.3-9.8,6.2c-1.7,0-3.8-0.4-4.8-0.8c-2.8-1.2-4.4-1-6.2,0.8c-1.4,1.4-1.5,1.9-1.8,5.2c-0.5,6.5-3.3,10.5-8.6,12.5c-7.2,2.7-15.1,1-18.8-4c-1.3-1.8-2.9-5.6-2.9-7c0-1.6-1.5-3.9-3-4.6c-2-1-4.1-0.9-7.2,0.2c-5,1.8-10.1,0.8-14.3-2.5c-3-2.5-4.1-2.8-7.2-1.9c-6.7,2-12.8-1.2-14.6-7.8c-1.2-4.1-0.5-6.7,2.9-10.9c2.2-2.8,2.2-3.7,0.4-8.3c-3-7.2-3.5-10.1-3.5-19.6c0-8,0.1-8.9,1.3-12.9C86.8,30.8,110.3,16.3,135.9,20.5z M105.3,129.5c2.9,0.6,4.5,0.6,6.9,0.3l3.2-0.4l1.6,3c2.1,4.1,6.4,8.3,10.6,10.5c7.9,4,15.6,4.1,23.2,0.2c1.5-0.7,2.8-1.3,2.9-1.3c0.1,0.1-25.9,82.3-26.2,82.5c-0.1,0.1-31.1-97.1-31.1-97.6c0-0.2,1.2,0.2,2.6,0.8C100.4,128.2,103.3,129.1,105.3,129.5z"/><path fill="#E94469" d="M104.9,35.7c-3.3,1-4.3,5.8-1.7,8.3c1.1,1.1,1.5,1.2,4.9,1.2c3.6,0,3.8-0.1,5.2-1.5c2.5-2.5,1.9-6.4-1.2-7.9C110.4,35.1,107.3,35,104.9,35.7z"/><path fill="#E94469" d="M132.7,35.5c-3.5,0.4-5.4,2.8-4.8,5.9c0.5,2.6,2.1,3.7,5.6,4c4.9,0.3,7.5-1.6,7.4-5.4c0-1.2-0.5-2.1-1.4-3C138,35.5,136.2,35.1,132.7,35.5z"/><path fill="#E94469" d="M155.9,55c-2,2.1-2.5,2.9-2.5,4.2c0,3.3,2.1,5.4,5.2,5.4c1.2,0,2-0.5,4.3-2.7c2.4-2.5,2.7-2.9,2.7-4.7c0-2.9-1.9-4.7-5-4.7C158.5,52.5,158.2,52.6,155.9,55z"/><path fill="#E94469" d="M95.8,64.5c-2.3,2.4-2.7,3-2.7,4.5c0,1.4,0.3,2.1,1.6,3.4c2.6,2.6,5.5,2.1,8.8-1.6c1.5-1.6,1.7-2.2,1.7-4.1c0-2.9-1.9-4.9-4.7-4.9C98.8,61.8,98.3,62.1,95.8,64.5z"/><path fill="#E94469" d="M129.3,63.4c-2.9,1.3-4,3.9-2.9,6.5c0.8,2.1,2.9,3.1,5.9,3.1c4.2,0,7-2.1,7-5.1c0-1.6-1.3-3.6-2.8-4.4C134.9,62.6,131.3,62.6,129.3,63.4z"/><path fill="#E94469" d="M148.5,88c-4.4,2.7-5.7,7.3-2.9,9.9c1.1,1,1.9,1.4,3.4,1.4c1.7,0,2.2-0.3,4.6-2.7c2.2-2.2,2.7-3,2.7-4.2C156.2,88,152.1,85.7,148.5,88z"/><path fill="#E94469" d="M115.7,88.5c-2.2,0.8-3,2.7-3,6.5c0,3.3,0.1,3.7,1.2,4.8c1.5,1.5,2.7,1.9,4.6,1.5c2.6-0.5,3.7-2.2,3.9-5.8c0.2-3.9-0.7-5.9-2.9-6.9C117.7,87.9,117.1,87.9,115.7,88.5z"/></g></g></g>
</svg>